<?xml version="1.0" encoding="UTF-8" standalone="no"?>
<!-- Created with Inkscape (http://www.inkscape.org/) -->

<svg
   xmlns:dc="http://purl.org/dc/elements/1.1/"
   xmlns:cc="http://creativecommons.org/ns#"
   xmlns:rdf="http://www.w3.org/1999/02/22-rdf-syntax-ns#"
   xmlns:svg="http://www.w3.org/2000/svg"
   xmlns="http://www.w3.org/2000/svg"
   xmlns:sodipodi="http://sodipodi.sourceforge.net/DTD/sodipodi-0.dtd"
   xmlns:inkscape="http://www.inkscape.org/namespaces/inkscape"
   width="210mm"
   height="297mm"
   viewBox="0 0 210 297"
   version="1.1"
   id="svg8"
   inkscape:version="0.92.4 (5da689c313, 2019-01-14)"
   sodipodi:docname="web_devtitulo.svg">
  <defs
     id="defs2" />
  <sodipodi:namedview
     id="base"
     pagecolor="#ffffff"
     bordercolor="#666666"
     borderopacity="1.0"
     inkscape:pageopacity="0.0"
     inkscape:pageshadow="2"
     inkscape:zoom="0.53740115"
     inkscape:cx="97.618811"
     inkscape:cy="663.90598"
     inkscape:document-units="mm"
     inkscape:current-layer="svg8"
     showgrid="false"
     inkscape:window-width="1366"
     inkscape:window-height="768"
     inkscape:window-x="0"
     inkscape:window-y="0"
     inkscape:window-maximized="1"
     inkscape:snap-center="false"
     inkscape:snap-object-midpoints="false"
     inkscape:snap-page="true"
     inkscape:snap-grids="true"
     inkscape:snap-to-guides="false" />
  <metadata
     id="metadata5">
    <rdf:RDF>
      <cc:Work
         rdf:about="">
        <dc:format>image/svg+xml</dc:format>
        <dc:type
           rdf:resource="http://purl.org/dc/dcmitype/StillImage" />
        <dc:title></dc:title>
      </cc:Work>
    </rdf:RDF>
  </metadata>
  <path
     style="display:inline;fill:none;fill-rule:evenodd;stroke:#000000;stroke-width:0.26458332px;stroke-linecap:butt;stroke-linejoin:miter;stroke-opacity:1"
     d="M 24.61693,50.33836 141.79352,41.476265"
     id="path4577"
     inkscape:connector-type="polyline"
     inkscape:connector-curvature="0" />
  <path
     style="display:inline;fill:none;fill-rule:evenodd;stroke:#000000;stroke-width:0.26458332px;stroke-linecap:butt;stroke-linejoin:miter;stroke-opacity:1"
     d="M 28.555639,142.89802 141.79352,41.476265"
     id="path4579"
     inkscape:connector-type="polyline"
     inkscape:connector-curvature="0" />
  <path
     style="fill:none;fill-rule:evenodd;stroke:#000000;stroke-width:0.26458332px;stroke-linecap:butt;stroke-linejoin:miter;stroke-opacity:1"
     d="M 29.047977,93.171816 24.61693,50.33836"
     id="path4581"
     inkscape:connector-type="polyline"
     inkscape:connector-curvature="0" />
  <path
     style="display:inline;fill:none;fill-rule:evenodd;stroke:#000000;stroke-width:0.26458332px;stroke-linecap:butt;stroke-linejoin:miter;stroke-opacity:1"
     d="M 24.61693,50.33836 129.97739,23.259736"
     id="path4583"
     inkscape:connector-type="polyline"
     inkscape:connector-curvature="0" />
  <path
     style="fill:none;fill-rule:evenodd;stroke:#000000;stroke-width:0.26458332px;stroke-linecap:butt;stroke-linejoin:miter;stroke-opacity:1"
     d="M 129.97739,23.259736 29.047977,93.171816"
     id="path4585"
     inkscape:connector-type="polyline"
     inkscape:connector-curvature="0" />
  <path
     style="fill:none;fill-rule:evenodd;stroke:#000000;stroke-width:0.26458332px;stroke-linecap:butt;stroke-linejoin:miter;stroke-opacity:1"
     d="M 127.5157,125.17383 129.97739,23.259736"
     id="path4587"
     inkscape:connector-type="polyline"
     inkscape:connector-curvature="0" />
  <path
     style="fill:none;fill-rule:evenodd;stroke:#000000;stroke-width:0.26458332px;stroke-linecap:butt;stroke-linejoin:miter;stroke-opacity:1"
     d="M 222.53705,81.355691 127.5157,125.17383"
     id="path4589"
     inkscape:connector-type="polyline"
     inkscape:connector-curvature="0" />
  <path
     style="fill:none;fill-rule:evenodd;stroke:#000000;stroke-width:0.26458332px;stroke-linecap:butt;stroke-linejoin:miter;stroke-opacity:1"
     d="M 233.86083,155.20648 222.53705,81.355691"
     id="path4591"
     inkscape:connector-type="polyline"
     inkscape:connector-curvature="0" />
  <path
     style="fill:#800080;fill-opacity:1;stroke:#000000;stroke-width:1.8608073;stroke-opacity:0"
     d="m 381.0943,166.4338 c 1.67185,-1.817 108.29454,-75.576705 108.46073,-75.031236 0.0747,0.245312 -0.12468,15.580836 -0.44314,34.078946 l -0.57902,33.63292 -44.08035,3.23444 c -24.2442,1.77894 -48.68586,3.71704 -54.3148,4.30689 -5.62894,0.58984 -9.69848,0.48996 -9.04342,-0.22196 z"
     id="path4593"
     inkscape:connector-curvature="0"
     transform="scale(0.26458333)" />
  <path
     style="fill:#800080;fill-opacity:1;stroke:#000000;stroke-width:1.8608073;stroke-opacity:0"
     d=""
     id="path4595"
     inkscape:connector-curvature="0"
     transform="scale(0.26458333)" />
  <path
     style="fill:#800080;fill-opacity:1;stroke:#000000;stroke-width:1.8608073;stroke-opacity:0"
     d="m 490.62132,178.72138 v -16.7963 l 12.56045,-1.11805 c 6.90824,-0.61493 16.32858,-1.49243 20.93408,-1.95001 l 8.37363,-0.83195 -5.81483,5.05831 c -3.19815,2.78207 -12.61849,11.21791 -20.93408,18.7463 l -15.11925,13.688 z"
     id="path4597"
     inkscape:connector-curvature="0"
     transform="scale(0.26458333)" />
  <path
     style="fill:#800080;fill-opacity:1;stroke:#000000;stroke-width:1.8608073;stroke-opacity:0"
     d="m 110.96575,349.19862 c -0.028,-0.30724 -3.73434,-35.71988 -8.23635,-78.69475 -4.50201,-42.97487 -7.978353,-78.34324 -7.725204,-78.59639 0.670964,-0.67097 271.469564,-21.06831 272.046544,-20.49134 0.2677,0.26769 -49.90354,35.38579 -111.49164,78.04022 -61.58809,42.65443 -119.30528,82.67167 -128.26041,88.9272 -8.95514,6.25553 -16.30496,11.12231 -16.33294,10.81506 z"
     id="path4599"
     inkscape:connector-curvature="0"
     transform="scale(0.26458333)" />
  <path
     style="fill:none;fill-rule:evenodd;stroke:#000000;stroke-width:0.26458332px;stroke-linecap:butt;stroke-linejoin:miter;stroke-opacity:1"
     d="M 28.555637,142.89801 29.359688,92.392134"
     id="path4601"
     inkscape:connector-type="polyline"
     inkscape:connector-curvature="0" />
  <path
     style="fill:none;fill-rule:evenodd;stroke:#000000;stroke-width:0.26458332px;stroke-linecap:butt;stroke-linejoin:miter;stroke-opacity:1"
     d="m 70.40442,132.5589 59.4058,-80.828181"
     id="path4603"
     inkscape:connector-type="polyline"
     inkscape:connector-curvature="0" />
  <path
     style="fill:none;fill-rule:evenodd;stroke:#000000;stroke-width:0.26458332px;stroke-linecap:butt;stroke-linejoin:miter;stroke-opacity:1"
     d="m 70.40442,132.5589 57.11128,-7.38507"
     id="path4605"
     inkscape:connector-type="polyline"
     inkscape:connector-curvature="0" />
  <path
     style="fill:#000080;fill-rule:evenodd;stroke:#000000;stroke-width:0.26458332px;stroke-linecap:butt;stroke-linejoin:miter;stroke-opacity:1"
     d="m 127.5157,125.17383 v 0"
     id="path4607"
     inkscape:connector-type="polyline"
     inkscape:connector-curvature="0" />
  <path
     style="fill:#000080;fill-opacity:1;stroke:#000000;stroke-width:1.8608073;stroke-opacity:0"
     d="m 271.35619,496.88445 c 1.29867,-3.24637 214.45112,-292.30886 215.08149,-291.67851 0.54844,0.54845 -5.28482,265.63826 -5.86504,266.53418 -0.26957,0.41623 -204.40502,26.6979 -207.35565,26.69626 -1.36459,-7.6e-4 -2.20195,-0.69914 -1.8608,-1.55193 z"
     id="path4609"
     inkscape:connector-curvature="0"
     transform="scale(0.26458333)" />
  <path
     style="fill:#000080;fill-opacity:1;stroke:#000000;stroke-width:1.8608073;stroke-opacity:0"
     d="m 110.13877,466.43098 c 0.54546,-38.17549 1.46797,-79.64765 2.05001,-92.16035 l 1.05825,-22.75035 129.60651,-89.73691 c 79.10707,-54.77211 132.14415,-90.3211 136.11934,-91.23624 6.27412,-1.44438 108.2073,-9.25805 109.10214,-8.36321 0.24143,0.24141 -0.0525,8.67435 -0.65292,18.73986 l -1.09184,18.30095 -186.13293,166.81759 C 197.82421,457.79199 112.95798,533.53067 111.6057,534.35045 c -2.0273,1.22902 -2.28468,-10.68774 -1.46693,-67.91947 z"
     id="path4611"
     inkscape:connector-curvature="0"
     transform="scale(0.26458333)" />
  <path
     style="fill:#000080;fill-opacity:0.1392405;stroke:#000000;stroke-width:1.8608073;stroke-opacity:0"
     d="m 113.80783,186.73685 c 2.69565,-1.2973 363.72656,-93.957861 366.08554,-93.957861 4.18393,0 -105.75863,74.464741 -111.15493,75.285881 -3.07034,0.46721 -57.91763,4.67303 -121.88288,9.34627 -63.96525,4.67323 -120.48728,8.88479 -125.6045,9.35901 -5.11722,0.47422 -8.46667,0.45924 -7.44323,-0.0333 z"
     id="path4613"
     inkscape:connector-curvature="0"
     transform="scale(0.26458333)" />
</svg>
