<?xml version="1.0" encoding="UTF-8" standalone="no"?>
<svg
   xmlns:dc="http://purl.org/dc/elements/1.1/"
   xmlns:cc="http://creativecommons.org/ns#"
   xmlns:rdf="http://www.w3.org/1999/02/22-rdf-syntax-ns#"
   xmlns:svg="http://www.w3.org/2000/svg"
   xmlns="http://www.w3.org/2000/svg"
   id="svg8"
   version="1.1"
   viewBox="0 0 210 297"
   height="297mm"
   width="210mm">
  <defs
     id="defs2" />
  <metadata
     id="metadata5">
    <rdf:RDF>
      <cc:Work
         rdf:about="">
        <dc:format>image/svg+xml</dc:format>
        <dc:type
           rdf:resource="http://purl.org/dc/dcmitype/StillImage" />
        <dc:title></dc:title>
      </cc:Work>
    </rdf:RDF>
  </metadata>
  <g
     id="layer1">
    <text
       id="text598"
       y="133.71428"
       x="32.505951"
       style="font-style:normal;font-weight:normal;font-size:9.8777771px;line-height:1.25;font-family:sans-serif;text-align:end;letter-spacing:-0.75670832px;word-spacing:0px;text-anchor:end;fill:#000000;fill-opacity:1;stroke:none;stroke-width:0.26458332"
       xml:space="preserve"><tspan
         style="stroke-width:0.26458332"
         y="142.72607"
         x="32.505951"
         id="tspan596" /></text>
    <g
       style="fill:#2b2200;fill-opacity:1;stroke:#000000;stroke-opacity:0"
       id="g724">
      <path
         points="25.702381,206.20427 36.330297,202.87663 36.330297,86.126539 25.702381,82.309524 "
         d="M 25.702381,82.309524 V 206.20427 l 10.627916,-3.32764 V 86.126539 Z"
         style="fill:#353564;fill-rule:evenodd;stroke:none;stroke-linejoin:round"
         id="path726" />
      <path
         points="47.624999,255.42262 64.161988,244.53314 36.330297,202.87663 25.702381,206.20427 "
         d="M 25.702381,206.20427 47.624999,255.42262 64.161988,244.53314 36.330297,202.87663 Z"
         style="fill:#afafde;fill-rule:evenodd;stroke:none;stroke-linejoin:round"
         id="path734" />
      <path
         points="64.161988,38.343857 64.161988,244.53314 36.330297,202.87663 36.330297,86.126539 "
         d="M 36.330297,86.126539 64.161988,38.343857 V 244.53314 L 36.330297,202.87663 Z"
         style="fill:#e9e9ff;fill-rule:evenodd;stroke:none;stroke-linejoin:round"
         id="path736" />
      <path
         points="47.624999,25.852938 64.161988,38.343857 36.330297,86.126539 25.702381,82.309524 "
         d="M 25.702381,82.309524 47.624999,25.852938 64.161988,38.343857 36.330297,86.126539 Z"
         style="fill:#4d4d9f;fill-rule:evenodd;stroke:none;stroke-linejoin:round"
         id="path728" />
      <path
         points="47.624999,255.42262 64.161988,244.53314 64.161988,38.343857 47.624999,25.852938 "
         d="M 47.624999,25.852938 V 255.42262 L 64.161988,244.53314 V 38.343857 Z"
         style="fill:#00ffff;fill-rule:evenodd;stroke:none;stroke-linejoin:round"
         id="path732" />
      <path
         points="47.624999,25.852938 47.624999,255.42262 25.702381,206.20427 25.702381,82.309524 "
         d="M 25.702381,82.309524 47.624999,25.852938 V 255.42262 L 25.702381,206.20427 Z"
         style="fill:#e6e6e6;fill-rule:evenodd;stroke:none;stroke-linejoin:round"
         id="path730" />
    </g>
    <g
       style="fill:#2b2200;fill-opacity:1;stroke:#000000;stroke-opacity:0"
       id="g922">
      <path
         points="140.60714,217.625 158.01172,200.2876 158.01172,79.292929 140.60714,56.12386 "
         d="M 140.60714,56.12386 V 217.625 l 17.40458,-17.3374 V 79.292929 Z"
         style="fill:#353564;fill-rule:evenodd;stroke:none;stroke-linejoin:round"
         id="path924" />
      <path
         points="190.5,242.15322 196.58477,212.92974 158.01172,200.2876 140.60714,217.625 "
         d="M 140.60714,217.625 190.5,242.15322 196.58477,212.92974 158.01172,200.2876 Z"
         style="fill:#afafde;fill-rule:evenodd;stroke:none;stroke-linejoin:round"
         id="path932" />
      <path
         points="196.58477,62.398439 196.58477,212.92974 158.01172,200.2876 158.01172,79.292929 "
         d="m 158.01172,79.292929 38.57305,-16.89449 V 212.92974 L 158.01172,200.2876 Z"
         style="fill:#e9e9ff;fill-rule:evenodd;stroke:none;stroke-linejoin:round"
         id="path934" />
      <path
         points="190.5,23.345231 196.58477,62.398439 158.01172,79.292929 140.60714,56.12386 "
         d="M 140.60714,56.12386 190.5,23.345231 l 6.08477,39.053208 -38.57305,16.89449 z"
         style="fill:#4d4d9f;fill-rule:evenodd;stroke:none;stroke-linejoin:round"
         id="path926" />
      <path
         points="190.5,242.15322 196.58477,212.92974 196.58477,62.398439 190.5,23.345231 "
         d="M 190.5,23.345231 V 242.15322 l 6.08477,-29.22348 V 62.398439 Z"
         style="fill:#d7d7ff;fill-rule:evenodd;stroke:none;stroke-linejoin:round"
         id="path930" />
      <path
         points="190.5,23.345231 190.5,242.15322 140.60714,217.625 140.60714,56.12386 "
         d="M 140.60714,56.12386 190.5,23.345231 V 242.15322 L 140.60714,217.625 Z"
         style="fill:#00ffff;fill-rule:evenodd;stroke:none;stroke-linejoin:round"
         id="path928" />
    </g>
    <g
       style="fill:#2b2200;fill-opacity:1;stroke:#000000;stroke-opacity:0"
       id="g966">
      <path
         points="64.161988,244.53315 83.488695,231.80667 83.488695,231.80667 64.161988,244.53315 "
         d="m 64.161988,244.53315 v 0 l 19.326707,-12.72648 v 0 z"
         style="fill:#353564;fill-rule:evenodd;stroke:none;stroke-linejoin:round"
         id="path968" />
      <path
         points="64.161988,244.53315 83.488695,231.80667 83.488695,231.80667 64.161988,244.53315 "
         d="m 64.161988,244.53315 0,0 19.326707,-12.72648 0,0 z"
         style="fill:#afafde;fill-rule:evenodd;stroke:none;stroke-linejoin:round"
         id="path976" />
      <path
         points="83.488695,231.80667 83.488695,231.80667 83.488695,231.80667 "
         d="m 83.488695,231.80667 0,0 v 0 z"
         style="fill:#e9e9ff;fill-rule:evenodd;stroke:none;stroke-linejoin:round"
         id="path978" />
      <path
         points="64.161988,244.53315 83.488695,231.80667 83.488695,231.80667 64.161988,244.53315 "
         d="m 64.161988,244.53315 0,0 19.326707,-12.72648 0,0 z"
         style="fill:#4d4d9f;fill-rule:evenodd;stroke:none;stroke-linejoin:round"
         id="path970" />
      <path
         points="64.161988,244.53315 83.488695,231.80667 83.488695,231.80667 64.161988,244.53315 "
         d="m 64.161988,244.53315 v 0 l 19.326707,-12.72648 v 0 z"
         style="fill:#d7d7ff;fill-rule:evenodd;stroke:none;stroke-linejoin:round"
         id="path974" />
      <path
         points="64.161988,244.53315 64.161988,244.53315 64.161988,244.53315 "
         d="m 64.161988,244.53315 0,0 v 0 z"
         style="fill:#8686bf;fill-rule:evenodd;stroke:none;stroke-linejoin:round"
         id="path972" />
    </g>
    <text
       id="text996"
       y="157.90477"
       x="157.99405"
       style="font-style:normal;font-weight:normal;font-size:9.8777771px;line-height:6.25;font-family:sans-serif;text-align:end;letter-spacing:-0.75670832px;word-spacing:0px;text-anchor:end;fill:#ffff00;fill-opacity:1;stroke:none;stroke-width:0.26458332;"
       xml:space="preserve"><tspan
         style="stroke-width:0.26458332;fill:#ffff00;"
         y="157.90477"
         x="157.23735"
         id="tspan994">WEB DEVELOPER</tspan></text>
    <rect
       y="116.32738"
       x="46.113098"
       height="71.059525"
       width="146.65475"
       id="rect1052"
       style="opacity:1;vector-effect:none;fill:#f9f9f9;fill-opacity:1;fill-rule:evenodd;stroke-width:0.26458332;stroke-linecap:butt;stroke-linejoin:miter;stroke-miterlimit:4;stroke-dasharray:none;stroke-dashoffset:0;stroke-opacity:1" />
    <text
       id="text1056"
       y="151.85713"
       x="131.53571"
       style="font-style:normal;font-weight:normal;font-size:9.8777771px;line-height:6.25;font-family:sans-serif;text-align:end;letter-spacing:-0.75670832px;word-spacing:0px;text-anchor:end;fill:#000000;fill-opacity:1;stroke:none;stroke-width:0.26458332"
       xml:space="preserve"><tspan
         style="stroke-width:0.26458332"
         y="185.56337"
         x="131.53571"
         id="tspan1054" /></text>
    <text
       transform="scale(0.92513494,1.0809234)"
       id="text1060"
       y="141.84103"
       x="193.57854"
       style="font-style:normal;font-weight:normal;font-size:16.34601593px;line-height:6.25;font-family:sans-serif;text-align:end;letter-spacing:-1.25222087px;word-spacing:0px;text-anchor:end;fill:#008080;fill-opacity:1;stroke:none;stroke-width:0.43783957;"
       xml:space="preserve"><tspan
         style="fill:#008080;stroke-width:0.43783957;"
         y="141.84103"
         x="192.32631"
         id="tspan1058">WEB DEVELOPER</tspan></text>
  </g>
</svg>
